<mxfile host="app.diagrams.net" agent="Mozilla/5.0 (Windows NT 10.0; Win64; x64; rv:132.0) Gecko/20100101 Firefox/132.0" version="24.9.0">
  <diagram name="Page-1" id="sKrhKpfBKihCsxMJccks">
    <mxGraphModel dx="630" dy="786" grid="1" gridSize="10" guides="1" tooltips="1" connect="1" arrows="1" fold="1" page="1" pageScale="1" pageWidth="850" pageHeight="1100" math="0" shadow="0">
      <root>
        <mxCell id="0" />
        <mxCell id="1" parent="0" />
        <mxCell id="UKfuk6pBEWHWND-9527Y-1" value="" style="whiteSpace=wrap;html=1;aspect=fixed;" vertex="1" parent="1">
          <mxGeometry x="130" y="150" width="250" height="250" as="geometry" />
        </mxCell>
        <mxCell id="UKfuk6pBEWHWND-9527Y-2" value="&lt;b&gt;&lt;font style=&quot;font-size: 22px;&quot;&gt;ZUP.EMPLOYEE&lt;/font&gt;&lt;/b&gt;" style="text;html=1;whiteSpace=wrap;overflow=hidden;rounded=0;" vertex="1" parent="1">
          <mxGeometry x="165" y="200" width="180" height="120" as="geometry" />
        </mxCell>
        <mxCell id="UKfuk6pBEWHWND-9527Y-3" value="" style="whiteSpace=wrap;html=1;aspect=fixed;" vertex="1" parent="1">
          <mxGeometry x="130" y="510" width="240" height="240" as="geometry" />
        </mxCell>
        <mxCell id="UKfuk6pBEWHWND-9527Y-4" value="&quot;ZUP.EMPLOYEE" style="text;html=1;whiteSpace=wrap;overflow=hidden;rounded=0;" vertex="1" parent="1">
          <mxGeometry x="165" y="550" width="180" height="120" as="geometry" />
        </mxCell>
      </root>
    </mxGraphModel>
  </diagram>
</mxfile>
